<?xml version="1.0" encoding="UTF-8" standalone="no"?>
<!DOCTYPE svg PUBLIC "-//W3C//DTD SVG 1.1//EN" "http://www.w3.org/Graphics/SVG/1.1/DTD/svg11.dtd">
<svg width="100%" height="100%" viewBox="0 0 2060 800" version="1.1" xmlns="http://www.w3.org/2000/svg" xmlns:xlink="http://www.w3.org/1999/xlink" xml:space="preserve" xmlns:serif="http://www.serif.com/" style="fill-rule:evenodd;clip-rule:evenodd;stroke-linejoin:round;stroke-miterlimit:2;">
    <g id="Mesa-de-trabajo1" serif:id="Mesa de trabajo1" transform="matrix(0.731534,0,0,0.520833,0,0)">
        <rect x="0" y="0" width="2816" height="1536" style="fill:none;"/>
        <g id="Fondo" transform="matrix(3.759223,0,0,5.28,-534.493204,-708.48)">
            <path d="M189.466,290.497C189.078,290.393 188.799,290.017 188.41,289.912C188.072,289.821 186.643,290.417 186.495,290.478C183.009,291.929 178.446,292.161 172.52,293.575C171.813,293.744 168.527,294.528 163.531,294.861C155.033,295.427 149.759,296.267 148.886,295.212C148.429,294.659 148.442,291.8 148.443,291.501C148.471,285.091 148.396,283.599 148.966,282.946C149.446,282.397 152.201,282.243 152.488,282.227C159.905,281.813 166.702,280.983 168.529,280.659C183.194,278.057 191.501,275.033 193.433,274.33C202.854,270.9 202.738,270.636 208.364,268.18C211.45,266.833 211.351,266.68 214.405,265.282C217.163,264.02 216.831,263.247 216.843,259.502C216.94,228.274 216.741,228.278 217.194,221.532C217.206,221.35 217.442,217.84 215.737,219.776C214.963,220.654 215.631,221.03 212.676,225.624C204.054,239.029 198.265,244.143 191.261,250.236C180.7,259.424 166.209,266.007 157.436,268.195C150.106,270.023 149.502,269.369 149.045,268.874C148.486,268.268 148.576,267.056 148.567,266.496C148.44,258.704 148.272,257.027 149.42,256.381C150.119,255.988 161.185,253.224 165.643,250.77C167.525,249.734 174.507,246.605 180.658,241.707C186.931,236.712 189.996,233.403 194.318,228.344C199.87,221.846 206.58,210.013 208.733,204.595C213.652,192.214 213.726,190.115 215.18,183.42C217.103,174.566 216.103,173.54 218.558,172.917C218.83,172.848 228.367,172.868 228.464,172.886C231.248,173.399 230.065,175.149 232.402,182.532C235.273,191.603 239.22,205.034 254.775,222.253C260.163,228.217 268.942,234.503 269.813,235.061C273.931,237.699 273.982,237.586 278.277,239.915C288.459,245.437 300.2,247.712 300.474,247.754C303.758,248.255 302.825,245.67 302.794,245.475C302.62,244.367 301.815,239.241 302.085,231.482C302.866,208.987 314.861,194.484 315.498,193.499C316.881,191.36 320.692,187.52 321.495,186.496C322.35,185.406 322.655,185.382 323.026,185.017C324.789,183.285 324.796,183.327 326.653,181.665C329.812,178.837 336.93,174.137 341.38,172.214C346.796,169.874 347.88,169.555 348.465,169.383C356.695,166.964 359.934,165.949 371.51,166.063C382.2,166.168 386.939,168.131 390.605,169.119C398.666,171.292 406.89,176.673 408.35,177.718C414.831,182.359 419.518,187.045 420.567,188.439C422.505,191.015 423.682,191.366 428.274,198.633C430.421,202.031 430.295,202.084 432.17,205.66C434.034,209.214 437.774,220.278 438.248,228.52C438.455,232.12 439.112,233.601 435.509,233.632C426.371,233.71 426.317,233.722 425.65,233.3C423.493,231.931 426.028,223.461 418.405,208.556C415.465,202.807 410.01,196.669 409.166,195.807C406.744,193.332 401.181,188.97 399.301,187.874C391.372,183.252 380.905,177.727 362.546,179.893C354.219,180.876 344.172,185.388 338.591,189.63C337.601,190.382 331.193,195.253 327.432,200.448C325.169,203.574 325.102,203.517 324.922,203.8C324.351,204.695 320.562,210.64 318.907,215.631C316.392,223.218 315.359,229.262 315.802,238.484C316.625,255.629 327.384,269.805 334.064,275.959C334.147,276.035 334.138,276.031 335.076,276.943C344.884,286.477 356.603,294.415 357.692,295.275C360.197,297.254 358.193,297.812 354.057,302.098C348.935,307.404 348.932,307.408 346.706,310.645C345.231,312.791 343.211,318.303 342.922,320.568C340.411,340.304 356.193,348.703 356.301,348.779C357.073,349.323 360.641,351.835 367.499,352.514C384.176,354.165 398.694,339.959 397.781,323.476C397.31,314.968 391.761,307.488 391.202,306.715C389.878,304.882 383.931,296.65 370.564,287.413C366.773,284.792 366.843,284.705 366.501,284.499C363.463,282.674 349.1,272.371 341.972,265.028C338.879,261.841 335.546,256.533 335.054,255.749C327.849,244.275 328.987,233.488 329.06,231.471C329.465,220.313 336.596,210.328 338.278,208.316C346.336,198.682 354.127,196.244 358.599,194.806C360.111,194.32 367.965,191.793 378.427,193.858C379.507,194.071 385.877,196.101 387.31,196.852C394.586,200.664 398.015,204.101 399.463,205.538C409.809,215.805 411.277,228.009 411.198,231.485C411.194,231.647 411.166,232.873 410.382,233.334C409.678,233.748 405.544,233.503 402.501,233.532C401.834,233.538 401.167,233.553 400.5,233.557C397.992,233.572 398.019,232.942 397.467,230.506C397.116,228.956 397.121,228.977 396.779,227.431C394.441,216.861 384.435,208.689 375.551,207.14C360.271,204.475 349.047,214.22 345.398,222.454C342.706,228.528 342.81,230.892 342.729,233.505C342.41,243.754 347.05,250.371 352.629,256.389C360.408,264.78 377.376,275.124 387.436,283.577C401.908,295.738 406.062,304.786 407.808,308.351C409.794,312.406 411.075,319.242 411.165,320.536C411.853,330.362 410.591,332.972 409.895,335.613C405.613,351.873 394.333,358.13 391.775,359.894C383.924,365.307 371.235,367.051 364.464,365.723C357.047,364.268 353.249,363.047 345.822,358.071C344.764,357.361 337.21,351.045 334.427,345.537C330.752,338.264 328.817,334.688 329.04,323.482C329.29,310.923 336.218,301.98 337.749,299.63C339.173,297.444 337.506,296.902 331.361,291.682C331.13,291.486 328.678,289.403 327.987,289.947C327.766,290.121 327.838,290.156 325.889,292.771C323.688,295.725 319.741,303.638 318.776,306.599C316.706,312.943 315.776,316.735 315.668,324.501C315.592,330.037 315.481,330.049 316.524,335.496C315.945,335.766 316.084,335.944 315.5,336.216C314.496,336.685 314.44,336.436 314.373,336.5C314.128,336.736 314.192,337.161 314.165,337.5C314.14,337.812 314.269,338.129 314.219,338.439C314.203,338.535 314.009,338.519 313.983,338.613C313.806,339.243 313.753,339.901 313.628,340.543C312.841,344.584 312.644,344.513 311.208,348.376C309.347,353.382 308.995,353.239 308.902,353.693C308.902,353.693 308.669,355.593 308.649,355.758C307.353,357.161 307.332,357.818 307.098,358.227C304.865,362.127 303.583,363.842 303.238,364.303C302.595,365.163 298.796,370.242 294.43,374.431C283.518,384.9 271.855,388.786 271.299,389.003C267.349,390.541 267.316,390.405 263.473,391.403C261.764,391.846 253.129,394.088 241.458,392.969C230.869,391.953 224.992,389.122 222.59,388.248C219.136,386.991 218.686,386.458 217.349,385.836C214.68,384.594 214.761,384.479 212.235,382.949C211.44,382.468 207.204,379.903 202.832,376.127C197.228,371.287 190.308,362.237 188.413,358.548C184.74,351.398 182.244,346.127 180.341,335.522C179.259,329.496 179.733,320.067 180.075,317.452C180.224,316.31 181.154,309.191 183.285,303.421C185.775,296.68 185.928,296.757 189.466,290.497Z" style="fill:rgb(60,136,223);"/>
            <path d="M217.774,279.858C218.056,279.693 225.7,274.619 231.411,273.207C236.225,272.017 238.862,270.565 250.475,270.912C254.496,271.032 263.592,272.731 268.291,274.961C272.312,276.87 272.367,276.723 276.18,278.999C278.727,280.519 280.988,282.332 281.384,282.65C284.433,285.096 284.493,285.008 287.231,287.775C289.635,290.206 290.139,288.414 295.088,284.095C297.849,281.685 297.909,280.913 297.937,280.55C297.958,280.28 298.841,279.029 288.703,271.209C281.641,265.762 273.969,262.795 272.594,262.263C268.284,260.596 268.345,260.42 259.514,258.428C255.358,257.491 243.244,256.637 235.484,258.424C234.511,258.648 234.526,258.651 233.561,258.864C233.403,258.899 231.837,259.245 231.561,259.143C230.516,258.759 230.521,258.628 230.386,257.514C230.365,257.341 230.421,237.937 230.322,222.499C230.294,218.18 230.357,218.197 229.994,214.545C229.925,213.858 229.817,213.733 230.427,213.417C230.709,213.271 230.948,212.97 231.266,212.965C231.558,212.96 232.952,215.547 233.079,215.783C235.343,219.984 244.862,233.734 260.421,244.609C268.557,250.295 271.941,252.017 282.5,256.5C283.076,256.744 292.052,259.57 293.427,259.84C305.489,262.207 305.526,261.981 306.566,262.226C308.822,262.759 308.09,263.834 312.01,269.814C314.605,273.774 314.449,273.868 317.379,277.602C319.746,280.619 317.146,281.121 314.444,285.461C314.294,285.702 303.84,299.48 302.259,319.48C301.815,325.1 303.529,343.505 288.782,360.735C272.199,380.11 248.368,381.646 236.5,378.498C233.689,377.752 223.944,376.013 212.866,367.055C208.433,363.47 204.478,358.114 203.845,357.257C193.324,343.01 191.542,325.458 194.833,312.579C196.447,306.265 196.363,306.226 199.271,300.381C204.213,290.447 211.284,284.729 212.615,283.652C215.108,281.635 215.193,281.782 217.774,279.858Z" style="fill:rgb(240,246,249);"/>
            <path d="M316.524,335.496C319.923,351.177 328.409,359.988 329.115,360.805C329.413,361.15 331.826,363.939 332.957,365.016C333.804,365.822 339.232,370.076 340.794,371.042C350.015,376.738 357.578,378.154 357.593,378.158C371.84,382.081 392.576,379.435 408.265,364.263C412.364,360.3 415.442,355.641 415.98,354.828C421.624,346.286 423.249,338.576 424.123,333.444C424.297,332.422 425.28,326.646 424.58,320.493C422.785,304.693 416.559,294.85 409.177,285.738C406.008,281.826 377.897,253.103 377.882,253.089C375.011,250.317 374.374,252.218 368.476,251.847C361.689,251.419 357.225,246.646 356.437,245.545C354.107,242.29 352.694,239.191 352.946,233.536C353.3,225.576 357.283,232.796 360.518,235.482C363.194,237.703 362.819,239.394 367.537,238.713C372.264,238.031 372.43,237.318 373.28,235.405C375.468,230.479 374.705,229.027 374.446,228.533C374.209,228.083 374.196,228.086 370.149,223.847C369.648,223.323 369.662,223.337 369.172,222.812C368.095,221.66 365.682,219.688 366.453,218.463C366.998,217.598 372.266,217.675 373.446,217.877C375.504,218.229 379.111,219.988 380.243,220.834C390.388,228.412 387.023,238.888 386.891,239.59C386.341,242.538 387.818,243.347 395.171,250.835C396.689,252.381 408.579,264.978 411.853,268.127C417.18,273.251 425.488,277.601 428.465,278.597C435.321,280.891 435.261,281.207 442.453,281.989C446.12,282.388 447.514,281.804 447.529,285.5C447.563,293.786 447.649,293.796 447.489,294.498C447.007,296.617 443.302,295.65 440.522,295.293C433.126,294.344 433.188,293.909 432.544,293.972C432.308,293.995 431.577,295.181 431.659,295.468C431.684,295.558 432.209,296.375 432.994,298.332C435.377,304.278 436.158,307.7 436.349,308.538C436.871,310.825 437.768,315.002 437.831,315.446C441.513,341.23 429.178,359.395 428.114,361.296C425.518,365.936 417.43,375.939 406.657,382.759C395.411,389.878 385.631,391.579 382.449,392.24C373.327,394.137 361.593,392.878 360.471,392.665C354.66,391.563 340.037,388.911 325.588,376.404C316.225,368.299 310.964,358.981 310.334,357.603C309.801,356.438 309.643,356.567 308.649,355.758C308.669,355.593 308.902,353.693 308.902,353.693C308.995,353.239 309.347,353.382 311.208,348.376C312.644,344.513 312.841,344.584 313.628,340.543C313.753,339.901 313.806,339.243 313.983,338.613C314.009,338.519 314.203,338.535 314.219,338.439C314.269,338.129 314.14,337.812 314.165,337.5C314.192,337.161 314.128,336.736 314.373,336.5C314.44,336.436 314.496,336.685 315.5,336.216C316.084,335.944 315.945,335.766 316.524,335.496Z" style="fill:rgb(67,142,230);"/>
            <path d="M378.834,332.713C378.591,333.02 376.935,335.109 375.223,336.008C372.658,337.355 370.237,337.113 370.523,335.507C370.722,334.388 376.585,332.662 377.617,325.528C377.663,325.211 377.689,324.89 377.731,324.572C377.839,323.75 377.585,323.423 378.419,323.326C379.668,323.183 379.731,323.46 380.035,324.676C381.024,328.625 379.14,332.14 378.834,332.713Z" style="fill:rgb(208,236,247);"/>
            <path d="M241.4,351.932C246.522,353.106 250.102,353.595 258.474,350.435C262.443,348.937 267.316,344.498 269.037,342.152C271.379,338.961 271.603,336.491 274.495,336.359C274.899,336.341 284.216,336.347 284.512,336.362C287.58,336.511 286.427,338.973 283.653,344.572C280.549,350.835 274.156,356.268 273.159,357.116C270.067,359.743 265.975,361.775 265.309,362.106C260.84,364.325 254.018,366.32 247.503,366.201C233.349,365.942 224.962,359.38 223.137,357.984C222.417,357.434 217.833,353.928 214.941,350.167C214.554,349.664 213.095,347.455 212.938,347.217C212.771,346.965 210.358,342.646 209.526,340.491C201.465,319.63 211.072,294.993 234.56,286.691C246.456,282.487 262.391,284.106 274.474,294.53C278.554,298.049 282.477,302.772 285.557,310.475C285.806,311.096 287.434,314.107 284.454,314.215C283.738,314.241 283.745,314.201 275.501,314.25C270.942,314.277 271.867,312.427 269.136,308.783C260.165,296.812 240.238,293.505 227.763,306.728C223.415,311.338 222.7,314.595 221.573,317.528C218.631,325.19 219.939,339.943 233.446,348.583C235.542,349.924 236,350.414 241.4,351.932Z" style="fill:rgb(53,128,212);"/>
            <path d="M356.693,320.591C357.8,318.517 358.26,317.248 364.239,308.338C368.374,302.177 368.273,302.124 368.633,301.589C369.362,300.508 369.286,300.074 370.569,300.323C371.039,300.414 371.823,301.992 372.256,302.649C377.461,310.542 377.403,310.567 377.874,311.239C380.707,315.286 381.351,316.035 383.814,321.348C388.718,331.923 380.219,341.703 371.478,342.232C370.234,342.307 362.072,342.801 357.407,335.56C352.838,328.468 356.021,322.45 356.693,320.591Z" style="fill:rgb(67,142,228);"/>
        </g>
        <g transform="matrix(1.36699,0,0,1.92,-513.98835,170.88)">
            <g transform="matrix(369.952284,0,0,369.952284,2432.03681,332)">
            </g>
            <text x="1294px" y="332px" style="font-family:'Inter18pt-Bold', 'Inter 18pt';font-weight:700;font-size:369.952px;fill:rgb(39,113,194);">Chiloé</text>
        </g>
        <g transform="matrix(1.397262,0,0,2.075745,-601.119929,-1614.085742)">
            <g transform="matrix(259.779866,0,0,259.779866,2439.645638,1398)">
            </g>
            <text x="1330px" y="1398px" style="font-family:'Inter18pt-Regular', 'Inter 18pt';font-size:259.78px;fill:rgb(59,70,86);">Ser<tspan x="1742.248px " y="1398px ">v</tspan>icios</text>
        </g>
    </g>
</svg>
