<?xml version="1.0" encoding="UTF-8" standalone="no"?>
<!DOCTYPE svg PUBLIC "-//W3C//DTD SVG 1.1//EN" "http://www.w3.org/Graphics/SVG/1.1/DTD/svg11.dtd">
<svg width="100%" height="100%" viewBox="0 0 2060 800" version="1.1" xmlns="http://www.w3.org/2000/svg" xmlns:xlink="http://www.w3.org/1999/xlink" xml:space="preserve" xmlns:serif="http://www.serif.com/" style="fill-rule:evenodd;clip-rule:evenodd;stroke-linejoin:round;stroke-miterlimit:2;">
    <g id="Mesa-de-trabajo1" serif:id="Mesa de trabajo1" transform="matrix(0.731534,0,0,0.520833,0,0)">
        <rect x="0" y="0" width="2816" height="1536" style="fill:none;"/>
        <g id="Fondo" transform="matrix(3.759223,0,0,5.28,-534.493204,-708.48)">
            <path d="M189.466,290.497C189.078,290.393 188.799,290.017 188.41,289.912C188.072,289.821 186.643,290.417 186.495,290.478C183.009,291.929 178.446,292.161 172.52,293.575C171.813,293.744 168.527,294.528 163.531,294.861C155.033,295.427 149.759,296.267 148.886,295.212C148.429,294.659 148.442,291.8 148.443,291.501C148.471,285.091 148.396,283.599 148.966,282.946C149.446,282.397 152.201,282.243 152.488,282.227C159.905,281.813 166.702,280.983 168.529,280.659C183.194,278.057 191.501,275.033 193.433,274.33C202.854,270.9 202.738,270.636 208.364,268.18C211.45,266.833 211.351,266.68 214.405,265.282C217.163,264.02 216.831,263.247 216.843,259.502C216.94,228.274 216.741,228.278 217.194,221.532C217.206,221.35 217.442,217.84 215.737,219.776C214.963,220.654 215.631,221.03 212.676,225.624C204.054,239.029 198.265,244.143 191.261,250.236C180.7,259.424 166.209,266.007 157.436,268.195C150.106,270.023 149.502,269.369 149.045,268.874C148.486,268.268 148.576,267.056 148.567,266.496C148.44,258.704 148.272,257.027 149.42,256.381C150.119,255.988 161.185,253.224 165.643,250.77C167.525,249.734 174.507,246.605 180.658,241.707C186.931,236.712 189.996,233.403 194.318,228.344C199.87,221.846 206.58,210.013 208.733,204.595C213.652,192.214 213.726,190.115 215.18,183.42C217.103,174.566 216.103,173.54 218.558,172.917C218.83,172.848 228.367,172.868 228.464,172.886C231.248,173.399 230.065,175.149 232.402,182.532C235.273,191.603 239.22,205.034 254.775,222.253C260.163,228.217 268.942,234.503 269.813,235.061C273.931,237.699 273.982,237.586 278.277,239.915C288.459,245.437 300.2,247.712 300.474,247.754C303.758,248.255 302.825,245.67 302.794,245.475C302.62,244.367 301.815,239.241 302.085,231.482C302.866,208.987 314.861,194.484 315.498,193.499C316.881,191.36 320.692,187.52 321.495,186.496C322.35,185.406 322.655,185.382 323.026,185.017C324.789,183.285 324.796,183.327 326.653,181.665C329.812,178.837 336.93,174.137 341.38,172.214C346.796,169.874 347.88,169.555 348.465,169.383C356.695,166.964 359.934,165.949 371.51,166.063C382.2,166.168 386.939,168.131 390.605,169.119C398.666,171.292 406.89,176.673 408.35,177.718C414.831,182.359 419.518,187.045 420.567,188.439C422.505,191.015 423.682,191.366 428.274,198.633C430.421,202.031 430.295,202.084 432.17,205.66C434.034,209.214 437.774,220.278 438.248,228.52C438.455,232.12 439.112,233.601 435.509,233.632C426.371,233.71 426.317,233.722 425.65,233.3C423.493,231.931 426.028,223.461 418.405,208.556C415.465,202.807 410.01,196.669 409.166,195.807C406.744,193.332 401.181,188.97 399.301,187.874C391.372,183.252 380.905,177.727 362.546,179.893C354.219,180.876 344.172,185.388 338.591,189.63C337.601,190.382 331.193,195.253 327.432,200.448C325.169,203.574 325.102,203.517 324.922,203.8C324.351,204.695 320.562,210.64 318.907,215.631C316.392,223.218 315.359,229.262 315.802,238.484C316.625,255.629 327.384,269.805 334.064,275.959C334.147,276.035 334.138,276.031 335.076,276.943C344.884,286.477 356.603,294.415 357.692,295.275C360.197,297.254 358.193,297.812 354.057,302.098C348.935,307.404 348.932,307.408 346.706,310.645C345.231,312.791 343.211,318.303 342.922,320.568C340.411,340.304 356.193,348.703 356.301,348.779C357.073,349.323 360.641,351.835 367.499,352.514C384.176,354.165 398.694,339.959 397.781,323.476C397.31,314.968 391.761,307.488 391.202,306.715C389.878,304.882 383.931,296.65 370.564,287.413C366.773,284.792 366.843,284.705 366.501,284.499C363.463,282.674 349.1,272.371 341.972,265.028C338.879,261.841 335.546,256.533 335.054,255.749C327.849,244.275 328.987,233.488 329.06,231.471C329.465,220.313 336.596,210.328 338.278,208.316C346.336,198.682 354.127,196.244 358.599,194.806C360.111,194.32 367.965,191.793 378.427,193.858C379.507,194.071 385.877,196.101 387.31,196.852C394.586,200.664 398.015,204.101 399.463,205.538C409.809,215.805 411.277,228.009 411.198,231.485C411.194,231.647 411.166,232.873 410.382,233.334C409.678,233.748 405.544,233.503 402.501,233.532C401.834,233.538 401.167,233.553 400.5,233.557C397.992,233.572 398.019,232.942 397.467,230.506C397.116,228.956 397.121,228.977 396.779,227.431C394.441,216.861 384.435,208.689 375.551,207.14C360.271,204.475 349.047,214.22 345.398,222.454C342.706,228.528 342.81,230.892 342.729,233.505C342.41,243.754 347.05,250.371 352.629,256.389C360.408,264.78 377.376,275.124 387.436,283.577C401.908,295.738 406.062,304.786 407.808,308.351C409.794,312.406 411.075,319.242 411.165,320.536C411.853,330.362 410.591,332.972 409.895,335.613C405.613,351.873 394.333,358.13 391.775,359.894C383.924,365.307 371.235,367.051 364.464,365.723C357.047,364.268 353.249,363.047 345.822,358.071C344.764,357.361 337.21,351.045 334.427,345.537C330.752,338.264 328.817,334.688 329.04,323.482C329.29,310.923 336.218,301.98 337.749,299.63C339.173,297.444 337.506,296.902 331.361,291.682C331.13,291.486 328.678,289.403 327.987,289.947C327.766,290.121 327.838,290.156 325.889,292.771C323.688,295.725 319.741,303.638 318.776,306.599C316.706,312.943 315.776,316.735 315.668,324.501C315.592,330.037 315.481,330.049 316.524,335.496C315.945,335.766 316.084,335.944 315.5,336.216C314.496,336.685 314.44,336.436 314.373,336.5C314.128,336.736 314.192,337.161 314.165,337.5C314.14,337.812 314.269,338.129 314.219,338.439C314.203,338.535 314.009,338.519 313.983,338.613C313.806,339.243 313.753,339.901 313.628,340.543C312.841,344.584 312.644,344.513 311.208,348.376C309.347,353.382 308.995,353.239 308.902,353.693C308.902,353.693 308.669,355.593 308.649,355.758C307.353,357.161 307.332,357.818 307.098,358.227C304.865,362.127 303.583,363.842 303.238,364.303C302.595,365.163 298.796,370.242 294.43,374.431C283.518,384.9 271.855,388.786 271.299,389.003C267.349,390.541 267.316,390.405 263.473,391.403C261.764,391.846 253.129,394.088 241.458,392.969C230.869,391.953 224.992,389.122 222.59,388.248C219.136,386.991 218.686,386.458 217.349,385.836C214.68,384.594 214.761,384.479 212.235,382.949C211.44,382.468 207.204,379.903 202.832,376.127C197.228,371.287 190.308,362.237 188.413,358.548C184.74,351.398 182.244,346.127 180.341,335.522C179.259,329.496 179.733,320.067 180.075,317.452C180.224,316.31 181.154,309.191 183.285,303.421C185.775,296.68 185.928,296.757 189.466,290.497Z" style="fill:rgb(60,136,223);"/>
            <path d="M217.774,279.858C218.056,279.693 225.7,274.619 231.411,273.207C236.225,272.017 238.862,270.565 250.475,270.912C254.496,271.032 263.592,272.731 268.291,274.961C272.312,276.87 272.367,276.723 276.18,278.999C278.727,280.519 280.988,282.332 281.384,282.65C284.433,285.096 284.493,285.008 287.231,287.775C289.635,290.206 290.139,288.414 295.088,284.095C297.849,281.685 297.909,280.913 297.937,280.55C297.958,280.28 298.841,279.029 288.703,271.209C281.641,265.762 273.969,262.795 272.594,262.263C268.284,260.596 268.345,260.42 259.514,258.428C255.358,257.491 243.244,256.637 235.484,258.424C234.511,258.648 234.526,258.651 233.561,258.864C233.403,258.899 231.837,259.245 231.561,259.143C230.516,258.759 230.521,258.628 230.386,257.514C230.365,257.341 230.421,237.937 230.322,222.499C230.294,218.18 230.357,218.197 229.994,214.545C229.925,213.858 229.817,213.733 230.427,213.417C230.709,213.271 230.948,212.97 231.266,212.965C231.558,212.96 232.952,215.547 233.079,215.783C235.343,219.984 244.862,233.734 260.421,244.609C268.557,250.295 271.941,252.017 282.5,256.5C283.076,256.744 292.052,259.57 293.427,259.84C305.489,262.207 305.526,261.981 306.566,262.226C308.822,262.759 308.09,263.834 312.01,269.814C314.605,273.774 314.449,273.868 317.379,277.602C319.746,280.619 317.146,281.121 314.444,285.461C314.294,285.702 303.84,299.48 302.259,319.48C301.815,325.1 303.529,343.505 288.782,360.735C272.199,380.11 248.368,381.646 236.5,378.498C233.689,377.752 223.944,376.013 212.866,367.055C208.433,363.47 204.478,358.114 203.845,357.257C193.324,343.01 191.542,325.458 194.833,312.579C196.447,306.265 196.363,306.226 199.271,300.381C204.213,290.447 211.284,284.729 212.615,283.652C215.108,281.635 215.193,281.782 217.774,279.858Z" style="fill:rgb(240,246,249);"/>
            <path d="M316.524,335.496C319.923,351.177 328.409,359.988 329.115,360.805C329.413,361.15 331.826,363.939 332.957,365.016C333.804,365.822 339.232,370.076 340.794,371.042C350.015,376.738 357.578,378.154 357.593,378.158C371.84,382.081 392.576,379.435 408.265,364.263C412.364,360.3 415.442,355.641 415.98,354.828C421.624,346.286 423.249,338.576 424.123,333.444C424.297,332.422 425.28,326.646 424.58,320.493C422.785,304.693 416.559,294.85 409.177,285.738C406.008,281.826 377.897,253.103 377.882,253.089C375.011,250.317 374.374,252.218 368.476,251.847C361.689,251.419 357.225,246.646 356.437,245.545C354.107,242.29 352.694,239.191 352.946,233.536C353.3,225.576 357.283,232.796 360.518,235.482C363.194,237.703 362.819,239.394 367.537,238.713C372.264,238.031 372.43,237.318 373.28,235.405C375.468,230.479 374.705,229.027 374.446,228.533C374.209,228.083 374.196,228.086 370.149,223.847C369.648,223.323 369.662,223.337 369.172,222.812C368.095,221.66 365.682,219.688 366.453,218.463C366.998,217.598 372.266,217.675 373.446,217.877C375.504,218.229 379.111,219.988 380.243,220.834C390.388,228.412 387.023,238.888 386.891,239.59C386.341,242.538 387.818,243.347 395.171,250.835C396.689,252.381 408.579,264.978 411.853,268.127C417.18,273.251 425.488,277.601 428.465,278.597C435.321,280.891 435.261,281.207 442.453,281.989C446.12,282.388 447.514,281.804 447.529,285.5C447.563,293.786 447.649,293.796 447.489,294.498C447.007,296.617 443.302,295.65 440.522,295.293C433.126,294.344 433.188,293.909 432.544,293.972C432.308,293.995 431.577,295.181 431.659,295.468C431.684,295.558 432.209,296.375 432.994,298.332C435.377,304.278 436.158,307.7 436.349,308.538C436.871,310.825 437.768,315.002 437.831,315.446C441.513,341.23 429.178,359.395 428.114,361.296C425.518,365.936 417.43,375.939 406.657,382.759C395.411,389.878 385.631,391.579 382.449,392.24C373.327,394.137 361.593,392.878 360.471,392.665C354.66,391.563 340.037,388.911 325.588,376.404C316.225,368.299 310.964,358.981 310.334,357.603C309.801,356.438 309.643,356.567 308.649,355.758C308.669,355.593 308.902,353.693 308.902,353.693C308.995,353.239 309.347,353.382 311.208,348.376C312.644,344.513 312.841,344.584 313.628,340.543C313.753,339.901 313.806,339.243 313.983,338.613C314.009,338.519 314.203,338.535 314.219,338.439C314.269,338.129 314.14,337.812 314.165,337.5C314.192,337.161 314.128,336.736 314.373,336.5C314.44,336.436 314.496,336.685 315.5,336.216C316.084,335.944 315.945,335.766 316.524,335.496Z" style="fill:rgb(67,142,230);"/>
            <path d="M378.834,332.713C378.591,333.02 376.935,335.109 375.223,336.008C372.658,337.355 370.237,337.113 370.523,335.507C370.722,334.388 376.585,332.662 377.617,325.528C377.663,325.211 377.689,324.89 377.731,324.572C377.839,323.75 377.585,323.423 378.419,323.326C379.668,323.183 379.731,323.46 380.035,324.676C381.024,328.625 379.14,332.14 378.834,332.713Z" style="fill:rgb(208,236,247);"/>
            <path d="M241.4,351.932C246.522,353.106 250.102,353.595 258.474,350.435C262.443,348.937 267.316,344.498 269.037,342.152C271.379,338.961 271.603,336.491 274.495,336.359C274.899,336.341 284.216,336.347 284.512,336.362C287.58,336.511 286.427,338.973 283.653,344.572C280.549,350.835 274.156,356.268 273.159,357.116C270.067,359.743 265.975,361.775 265.309,362.106C260.84,364.325 254.018,366.32 247.503,366.201C233.349,365.942 224.962,359.38 223.137,357.984C222.417,357.434 217.833,353.928 214.941,350.167C214.554,349.664 213.095,347.455 212.938,347.217C212.771,346.965 210.358,342.646 209.526,340.491C201.465,319.63 211.072,294.993 234.56,286.691C246.456,282.487 262.391,284.106 274.474,294.53C278.554,298.049 282.477,302.772 285.557,310.475C285.806,311.096 287.434,314.107 284.454,314.215C283.738,314.241 283.745,314.201 275.501,314.25C270.942,314.277 271.867,312.427 269.136,308.783C260.165,296.812 240.238,293.505 227.763,306.728C223.415,311.338 222.7,314.595 221.573,317.528C218.631,325.19 219.939,339.943 233.446,348.583C235.542,349.924 236,350.414 241.4,351.932Z" style="fill:rgb(53,128,212);"/>
            <path d="M356.693,320.591C357.8,318.517 358.26,317.248 364.239,308.338C368.374,302.177 368.273,302.124 368.633,301.589C369.362,300.508 369.286,300.074 370.569,300.323C371.039,300.414 371.823,301.992 372.256,302.649C377.461,310.542 377.403,310.567 377.874,311.239C380.707,315.286 381.351,316.035 383.814,321.348C388.718,331.923 380.219,341.703 371.478,342.232C370.234,342.307 362.072,342.801 357.407,335.56C352.838,328.468 356.021,322.45 356.693,320.591Z" style="fill:rgb(67,142,228);"/>
        </g>
        <g transform="matrix(1.36699,0,0,1.92,-513.98835,170.88)">
            <path d="M1435.261,335.793C1411.296,335.793 1389.83,330.314 1370.863,319.355C1351.895,308.396 1336.962,292.62 1326.064,272.027C1315.165,251.434 1309.716,226.626 1309.716,197.603C1309.716,168.46 1315.195,143.562 1326.154,122.908C1337.113,102.255 1352.106,86.449 1371.134,75.49C1390.161,64.531 1411.537,59.052 1435.261,59.052C1450.676,59.052 1465.037,61.219 1478.344,65.555C1491.651,69.89 1503.423,76.213 1513.659,84.522C1523.895,92.832 1532.295,102.948 1538.859,114.87C1545.422,126.792 1549.727,140.34 1551.774,155.514L1495.956,155.514C1494.632,148.047 1492.223,141.364 1488.731,135.463C1485.238,129.562 1480.903,124.564 1475.725,120.47C1470.546,116.375 1464.645,113.274 1458.022,111.167C1451.398,109.059 1444.173,108.005 1436.345,108.005C1422.135,108.005 1409.7,111.558 1399.043,118.663C1388.385,125.768 1380.166,135.975 1374.385,149.282C1368.605,162.589 1365.714,178.696 1365.714,197.603C1365.714,216.751 1368.635,232.979 1374.475,246.286C1380.316,259.593 1388.535,269.679 1399.133,276.543C1409.731,283.408 1422.135,286.84 1436.345,286.84C1444.052,286.84 1451.218,285.756 1457.841,283.588C1464.465,281.421 1470.396,278.32 1475.634,274.285C1480.873,270.251 1485.238,265.283 1488.731,259.382C1492.223,253.481 1494.692,246.798 1496.137,239.331L1551.955,239.331C1550.269,252.458 1546.385,264.802 1540.304,276.363C1534.222,287.924 1526.153,298.19 1516.098,307.162C1506.042,316.134 1494.24,323.149 1480.692,328.207C1467.144,333.264 1452,335.793 1435.261,335.793Z" style="fill:rgb(39,113,194);fill-rule:nonzero;"/>
            <path d="M1642.637,217.474L1642.637,332L1588.806,332L1588.806,62.845L1641.914,62.845L1641.914,182.791L1636.314,182.791C1641.733,165.931 1649.892,152.865 1660.791,143.592C1671.69,134.319 1685.689,129.682 1702.79,129.682C1716.639,129.682 1728.742,132.693 1739.099,138.714C1749.456,144.736 1757.494,153.406 1763.214,164.727C1768.935,176.047 1771.795,189.655 1771.795,205.551L1771.795,332L1717.783,332L1717.783,215.125C1717.783,202.481 1714.592,192.636 1708.209,185.591C1701.827,178.546 1692.915,175.023 1681.474,175.023C1673.888,175.023 1667.174,176.679 1661.333,179.991C1655.492,183.303 1650.916,188.09 1647.604,194.352C1644.293,200.614 1642.637,208.321 1642.637,217.474Z" style="fill:rgb(39,113,194);fill-rule:nonzero;"/>
            <path d="M1816.052,332L1816.052,132.573L1869.883,132.573L1869.883,332L1816.052,332ZM1842.967,106.741C1834.658,106.741 1827.583,104.031 1821.742,98.612C1815.901,93.193 1812.981,86.569 1812.981,78.742C1812.981,70.914 1815.901,64.29 1821.742,58.871C1827.583,53.452 1834.658,50.742 1842.967,50.742C1851.277,50.742 1858.322,53.452 1864.102,58.871C1869.883,64.29 1872.773,70.914 1872.773,78.742C1872.773,86.569 1869.883,93.193 1864.102,98.612C1858.322,104.031 1851.277,106.741 1842.967,106.741Z" style="fill:rgb(39,113,194);fill-rule:nonzero;"/>
            <rect x="1914.32" y="62.845" width="53.831" height="269.155" style="fill:rgb(39,113,194);fill-rule:nonzero;"/>
            <path d="M2102.548,335.974C2082.437,335.974 2065.005,331.669 2050.253,323.058C2035.5,314.448 2024.12,302.405 2016.111,286.93C2008.103,271.455 2004.099,253.481 2004.099,233.009C2004.099,212.295 2008.103,194.201 2016.111,178.726C2024.12,163.251 2035.5,151.209 2050.253,142.598C2065.005,133.988 2082.437,129.682 2102.548,129.682C2122.539,129.682 2139.911,133.988 2154.663,142.598C2169.415,151.209 2180.796,163.251 2188.804,178.726C2196.812,194.201 2200.817,212.295 2200.817,233.009C2200.817,253.481 2196.812,271.455 2188.804,286.93C2180.796,302.405 2169.415,314.448 2154.663,323.058C2139.911,331.669 2122.539,335.974 2102.548,335.974ZM2102.548,293.343C2111.941,293.343 2119.859,290.754 2126.302,285.575C2132.745,280.397 2137.653,273.262 2141.025,264.169C2144.397,255.077 2146.082,244.63 2146.082,232.828C2146.082,220.906 2144.397,210.429 2141.025,201.397C2137.653,192.365 2132.745,185.259 2126.302,180.081C2119.859,174.903 2111.941,172.314 2102.548,172.314C2093.155,172.314 2085.207,174.903 2078.703,180.081C2072.2,185.259 2067.293,192.365 2063.981,201.397C2060.67,210.429 2059.014,220.906 2059.014,232.828C2059.014,244.63 2060.67,255.077 2063.981,264.169C2067.293,273.262 2072.17,280.397 2078.613,285.575C2085.056,290.754 2093.034,293.343 2102.548,293.343Z" style="fill:rgb(39,113,194);fill-rule:nonzero;"/>
            <path d="M2327.085,335.974C2306.732,335.974 2289.18,331.759 2274.428,323.329C2259.675,314.899 2248.295,302.977 2240.287,287.562C2232.278,272.148 2228.274,254.023 2228.274,233.19C2228.274,212.596 2232.248,194.562 2240.196,179.088C2248.145,163.613 2259.344,151.51 2273.796,142.779C2288.247,134.048 2305.167,129.682 2324.556,129.682C2337.923,129.682 2350.327,131.85 2361.768,136.185C2373.208,140.521 2383.234,146.934 2391.844,155.424C2400.455,163.914 2407.138,174.511 2411.895,187.216C2416.652,199.921 2419.031,214.584 2419.031,231.202L2419.031,246.196L2249.77,246.196L2249.77,212.235L2392.838,212.235L2367.729,221.087C2367.729,210.73 2366.103,201.758 2362.851,194.171C2359.6,186.584 2354.813,180.713 2348.49,176.559C2342.168,172.404 2334.37,170.327 2325.097,170.327C2315.825,170.327 2307.937,172.434 2301.434,176.649C2294.93,180.864 2289.963,186.644 2286.531,193.99C2283.099,201.337 2281.382,209.766 2281.382,219.28L2281.382,243.125C2281.382,254.324 2283.309,263.838 2287.163,271.666C2291.017,279.494 2296.466,285.425 2303.511,289.459C2310.556,293.493 2318.775,295.511 2328.168,295.511C2334.551,295.511 2340.362,294.577 2345.6,292.711C2350.839,290.844 2355.295,288.134 2358.968,284.582C2362.641,281.029 2365.441,276.664 2367.367,271.485L2416.321,278.53C2413.19,290.091 2407.56,300.177 2399.431,308.788C2391.302,317.398 2381.126,324.082 2368.903,328.839C2356.68,333.596 2342.74,335.974 2327.085,335.974ZM2303.782,107.464L2330.336,51.104L2380.915,51.104L2341.716,107.464L2303.782,107.464Z" style="fill:rgb(39,113,194);fill-rule:nonzero;"/>
        </g>
        <g transform="matrix(1.397262,0,0,2.075745,-601.119929,-1614.085742)">
            <path d="M1412.83,1401.298C1399.046,1401.298 1387.059,1398.994 1376.869,1394.385C1366.68,1389.776 1358.752,1383.349 1353.086,1375.104C1347.42,1366.859 1344.291,1357.156 1343.699,1345.993L1368.054,1345.993C1368.561,1353.519 1370.844,1359.798 1374.903,1364.83C1378.962,1369.861 1384.311,1373.624 1390.949,1376.119C1397.588,1378.614 1404.881,1379.861 1412.83,1379.861C1421.54,1379.861 1429.299,1378.466 1436.106,1375.675C1442.914,1372.885 1448.284,1368.973 1452.216,1363.942C1456.148,1358.91 1458.114,1353.054 1458.114,1346.374C1458.114,1340.454 1456.507,1335.571 1453.294,1331.723C1450.081,1327.876 1445.662,1324.683 1440.039,1322.146C1434.415,1319.609 1427.967,1317.368 1420.695,1315.423L1398.243,1309.208C1382.091,1304.811 1369.787,1298.616 1361.331,1290.625C1352.874,1282.634 1348.646,1272.338 1348.646,1259.738C1348.646,1248.999 1351.479,1239.633 1357.145,1231.642C1362.811,1223.651 1370.548,1217.435 1380.358,1212.996C1390.167,1208.556 1401.245,1206.336 1413.591,1206.336C1426.191,1206.336 1437.29,1208.577 1446.888,1213.059C1456.486,1217.541 1464.034,1223.714 1469.53,1231.579C1475.027,1239.443 1477.944,1248.407 1478.283,1258.47L1454.943,1258.47C1453.928,1248.66 1449.573,1241.05 1441.878,1235.638C1434.183,1230.226 1424.5,1227.519 1412.83,1227.519C1404.712,1227.519 1397.566,1228.872 1391.393,1231.579C1385.22,1234.285 1380.421,1237.963 1376.996,1242.614C1373.571,1247.265 1371.859,1252.593 1371.859,1258.597C1371.859,1264.77 1373.741,1269.822 1377.504,1273.755C1381.267,1277.687 1385.96,1280.837 1391.584,1283.205C1397.207,1285.572 1402.809,1287.517 1408.391,1289.04L1427.798,1294.24C1433.802,1295.762 1439.933,1297.813 1446.191,1300.392C1452.448,1302.971 1458.241,1306.248 1463.568,1310.223C1468.896,1314.197 1473.209,1319.144 1476.507,1325.064C1479.805,1330.983 1481.454,1338.087 1481.454,1346.374C1481.454,1356.86 1478.727,1366.246 1473.272,1374.534C1467.818,1382.821 1459.974,1389.353 1449.742,1394.131C1439.51,1398.909 1427.206,1401.298 1412.83,1401.298Z" style="fill:rgb(59,70,86);fill-rule:nonzero;"/>
            <path d="M1572.909,1401.044C1559.379,1401.044 1547.709,1398 1537.9,1391.911C1528.091,1385.823 1520.564,1377.366 1515.321,1366.542C1510.079,1355.718 1507.457,1343.16 1507.457,1328.869C1507.457,1314.578 1510.057,1301.936 1515.258,1290.942C1520.459,1279.949 1527.816,1271.366 1537.329,1265.193C1546.843,1259.019 1557.899,1255.933 1570.499,1255.933C1578.448,1255.933 1586.101,1257.265 1593.458,1259.929C1600.815,1262.592 1607.411,1266.778 1613.246,1272.486C1619.081,1278.194 1623.69,1285.53 1627.072,1294.494C1630.455,1303.458 1632.146,1314.155 1632.146,1326.586L1632.146,1335.338L1522.044,1335.338L1522.044,1316.311L1619.842,1316.311L1609.568,1323.161C1609.568,1313.944 1608.067,1305.783 1605.065,1298.68C1602.063,1291.577 1597.665,1286.016 1591.873,1282C1586.08,1277.983 1578.956,1275.974 1570.499,1275.974C1562.128,1275.974 1554.918,1278.004 1548.872,1282.063C1542.826,1286.122 1538.196,1291.513 1534.983,1298.236C1531.769,1304.959 1530.162,1312.337 1530.162,1320.37L1530.162,1332.294C1530.162,1342.526 1531.917,1351.279 1535.427,1358.551C1538.936,1365.823 1543.925,1371.362 1550.394,1375.168C1556.863,1378.973 1564.411,1380.876 1573.036,1380.876C1578.787,1380.876 1583.966,1380.03 1588.575,1378.339C1593.184,1376.648 1597.137,1374.153 1600.435,1370.855C1603.733,1367.557 1606.228,1363.498 1607.919,1358.678L1629.863,1363.498C1627.749,1370.855 1624.07,1377.366 1618.828,1383.032C1613.585,1388.698 1607.052,1393.116 1599.23,1396.288C1591.408,1399.459 1582.634,1401.044 1572.909,1401.044Z" style="fill:rgb(59,70,86);fill-rule:nonzero;"/>
            <path d="M1663.097,1398L1663.097,1257.962L1684.787,1257.962L1684.787,1279.526L1686.056,1279.526C1688.677,1272.423 1693.201,1266.715 1699.628,1262.402C1706.055,1258.089 1713.454,1255.933 1721.826,1255.933C1723.602,1255.933 1725.589,1255.975 1727.788,1256.06C1729.987,1256.144 1731.678,1256.229 1732.862,1256.313L1732.862,1279.019C1732.185,1278.85 1730.515,1278.596 1727.851,1278.258C1725.188,1277.919 1722.334,1277.75 1719.289,1277.75C1712.947,1277.75 1707.218,1279.103 1702.102,1281.809C1696.986,1284.515 1692.969,1288.321 1690.051,1293.226C1687.134,1298.13 1685.675,1303.923 1685.675,1310.603L1685.675,1398L1663.097,1398Z" style="fill:rgb(59,70,86);fill-rule:nonzero;"/>
            <path d="M1801.993,1398L1748.464,1257.962L1773.072,1257.962L1803.007,1340.539C1806.052,1348.742 1808.673,1356.923 1810.872,1365.084C1813.07,1373.244 1815.354,1381.172 1817.721,1388.867L1810.111,1388.867C1812.479,1381.172 1814.783,1373.244 1817.024,1365.084C1819.265,1356.923 1821.865,1348.742 1824.825,1340.539L1854.634,1257.962L1879.115,1257.962L1825.586,1398L1801.993,1398Z" style="fill:rgb(59,70,86);fill-rule:nonzero;"/>
            <path d="M1904.484,1398L1904.484,1257.962L1927.062,1257.962L1927.062,1398L1904.484,1398ZM1915.773,1234.115C1911.545,1234.115 1907.888,1232.636 1904.801,1229.676C1901.714,1226.716 1900.171,1223.164 1900.171,1219.021C1900.171,1214.877 1901.714,1211.347 1904.801,1208.429C1907.888,1205.512 1911.545,1204.053 1915.773,1204.053C1920.086,1204.053 1923.786,1205.512 1926.872,1208.429C1929.959,1211.347 1931.502,1214.877 1931.502,1219.021C1931.502,1223.164 1929.959,1226.716 1926.872,1229.676C1923.786,1232.636 1920.086,1234.115 1915.773,1234.115Z" style="fill:rgb(59,70,86);fill-rule:nonzero;"/>
            <path d="M2022.577,1401.044C2009.808,1401.044 1998.624,1398.021 1989.027,1391.975C1979.429,1385.929 1971.945,1377.451 1966.575,1366.542C1961.205,1355.634 1958.52,1343.034 1958.52,1328.742C1958.52,1314.197 1961.205,1301.449 1966.575,1290.498C1971.945,1279.547 1979.429,1271.049 1989.027,1265.002C1998.624,1258.956 2009.808,1255.933 2022.577,1255.933C2029.596,1255.933 2036.192,1256.863 2042.365,1258.723C2048.538,1260.584 2054.119,1263.29 2059.109,1266.842C2064.098,1270.393 2068.368,1274.685 2071.92,1279.716C2075.472,1284.748 2078.093,1290.435 2079.785,1296.777L2057.84,1301.597C2056.91,1297.877 2055.409,1294.473 2053.337,1291.386C2051.265,1288.3 2048.75,1285.615 2045.79,1283.332C2042.83,1281.048 2039.405,1279.272 2035.515,1278.004C2031.626,1276.736 2027.313,1276.101 2022.577,1276.101C2013.36,1276.101 2005.707,1278.49 1999.618,1283.268C1993.53,1288.046 1988.963,1294.409 1985.919,1302.358C1982.874,1310.307 1981.352,1319.102 1981.352,1328.742C1981.352,1338.213 1982.874,1346.902 1985.919,1354.809C1988.963,1362.716 1993.508,1369.037 1999.555,1373.772C2005.601,1378.508 2013.275,1380.876 2022.577,1380.876C2027.313,1380.876 2031.647,1380.242 2035.579,1378.973C2039.511,1377.705 2042.999,1375.887 2046.044,1373.519C2049.088,1371.151 2051.625,1368.339 2053.654,1365.084C2055.684,1361.828 2057.206,1358.297 2058.221,1354.492L2080.165,1359.312C2078.474,1365.739 2075.852,1371.489 2072.301,1376.563C2068.749,1381.637 2064.457,1386.013 2059.426,1389.692C2054.394,1393.37 2048.75,1396.182 2042.492,1398.127C2036.234,1400.072 2029.596,1401.044 2022.577,1401.044Z" style="fill:rgb(59,70,86);fill-rule:nonzero;"/>
            <path d="M2110.989,1398L2110.989,1257.962L2133.567,1257.962L2133.567,1398L2110.989,1398ZM2122.278,1234.115C2118.05,1234.115 2114.392,1232.636 2111.306,1229.676C2108.219,1226.716 2106.676,1223.164 2106.676,1219.021C2106.676,1214.877 2108.219,1211.347 2111.306,1208.429C2114.392,1205.512 2118.05,1204.053 2122.278,1204.053C2126.591,1204.053 2130.29,1205.512 2133.377,1208.429C2136.463,1211.347 2138.007,1214.877 2138.007,1219.021C2138.007,1223.164 2136.463,1226.716 2133.377,1229.676C2130.29,1232.636 2126.591,1234.115 2122.278,1234.115Z" style="fill:rgb(59,70,86);fill-rule:nonzero;"/>
            <path d="M2229.082,1401.044C2216.313,1401.044 2205.129,1398.021 2195.531,1391.975C2185.933,1385.929 2178.449,1377.451 2173.08,1366.542C2167.71,1355.634 2165.025,1343.034 2165.025,1328.742C2165.025,1314.197 2167.71,1301.449 2173.08,1290.498C2178.449,1279.547 2185.933,1271.049 2195.531,1265.002C2205.129,1258.956 2216.313,1255.933 2229.082,1255.933C2241.851,1255.933 2253.056,1258.956 2262.696,1265.002C2272.336,1271.049 2279.841,1279.547 2285.211,1290.498C2290.581,1301.449 2293.266,1314.197 2293.266,1328.742C2293.266,1343.034 2290.581,1355.634 2285.211,1366.542C2279.841,1377.451 2272.336,1385.929 2262.696,1391.975C2253.056,1398.021 2241.851,1401.044 2229.082,1401.044ZM2229.082,1380.876C2238.384,1380.876 2246.1,1378.508 2252.231,1373.772C2258.362,1369.037 2262.929,1362.716 2265.931,1354.809C2268.933,1346.902 2270.434,1338.213 2270.434,1328.742C2270.434,1319.187 2268.933,1310.413 2265.931,1302.422C2262.929,1294.431 2258.362,1288.046 2252.231,1283.268C2246.1,1278.49 2238.384,1276.101 2229.082,1276.101C2219.864,1276.101 2212.211,1278.49 2206.123,1283.268C2200.034,1288.046 2195.468,1294.409 2192.423,1302.358C2189.379,1310.307 2187.857,1319.102 2187.857,1328.742C2187.857,1338.213 2189.379,1346.902 2192.423,1354.809C2195.468,1362.716 2200.013,1369.037 2206.059,1373.772C2212.106,1378.508 2219.78,1380.876 2229.082,1380.876Z" style="fill:rgb(59,70,86);fill-rule:nonzero;"/>
            <path d="M2372.544,1401.044C2362.904,1401.044 2354.279,1399.586 2346.668,1396.668C2339.057,1393.751 2332.799,1389.417 2327.895,1383.666C2322.99,1377.916 2319.819,1370.813 2318.381,1362.356L2339.945,1358.297C2341.721,1366.162 2345.378,1371.976 2350.917,1375.739C2356.456,1379.502 2363.581,1381.383 2372.291,1381.383C2382.015,1381.383 2389.774,1379.29 2395.567,1375.104C2401.359,1370.918 2404.256,1365.908 2404.256,1360.073C2404.256,1355.168 2402.501,1351.109 2398.992,1347.896C2395.482,1344.683 2390.345,1342.315 2383.58,1340.793L2360.367,1335.211C2347.598,1332.252 2338.085,1327.58 2331.827,1321.195C2325.569,1314.81 2322.44,1306.671 2322.44,1296.777C2322.44,1288.744 2324.66,1281.661 2329.1,1275.531C2333.539,1269.4 2339.649,1264.601 2347.429,1261.134C2355.209,1257.666 2364.088,1255.933 2374.066,1255.933C2383.707,1255.933 2391.994,1257.455 2398.928,1260.499C2405.862,1263.544 2411.465,1267.772 2415.735,1273.184C2420.006,1278.596 2422.987,1284.854 2424.678,1291.957L2404.002,1296.143C2402.48,1290.646 2399.372,1285.763 2394.679,1281.492C2389.986,1277.222 2383.157,1275.087 2374.193,1275.087C2365.737,1275.087 2358.782,1277.032 2353.327,1280.921C2347.873,1284.811 2345.146,1289.716 2345.146,1295.636C2345.146,1300.879 2347.048,1305.064 2350.854,1308.193C2354.659,1311.322 2360.494,1313.817 2368.358,1315.677L2389.795,1320.751C2402.649,1323.795 2412.141,1328.467 2418.272,1334.767C2424.403,1341.067 2427.468,1349.08 2427.468,1358.805C2427.468,1367.092 2425.143,1374.407 2420.492,1380.749C2415.841,1387.091 2409.393,1392.059 2401.148,1395.653C2392.903,1399.247 2383.368,1401.044 2372.544,1401.044Z" style="fill:rgb(59,70,86);fill-rule:nonzero;"/>
        </g>
    </g>
</svg>
